<svg width="52" height="45" viewBox="0 0 52 45" fill="none" xmlns="http://www.w3.org/2000/svg">
<path d="M26.417 2.56079e-06C26.1768 -0.000426393 25.9395 0.0530399 25.7226 0.156465C25.5057 0.25989 25.3148 0.41064 25.164 0.597614L24.878 0.80967C19.3356 -0.906054 13.0125 0.353428 8.61076 4.59454C6.76745 6.34363 5.39618 8.53029 4.62437 10.9513C3.85256 13.3724 3.70526 15.9492 4.19615 18.4424C4.14159 18.4906 4.08803 18.5399 4.0355 18.5902L1.5326 20.9999C1.04843 21.4592 0.662861 22.0123 0.399372 22.6255C0.135884 23.2386 0 23.899 0 24.5663C0 25.2337 0.135884 25.8941 0.399372 26.5072C0.662861 27.1204 1.04843 27.6734 1.5326 28.1327C2.81136 29.3665 4.58492 29.8292 6.23317 29.5207C6.43558 30.4493 6.90789 31.3328 7.65651 32.0526C8.64289 33.0036 9.92486 33.4952 11.2165 33.5305C11.2518 34.7739 11.7627 36.0077 12.7491 36.9588C13.7354 37.9098 15.0206 38.4046 16.3122 38.4367C16.3444 39.6801 16.8584 40.9171 17.8448 41.8682C18.7891 42.7643 20.0261 43.2881 21.3269 43.3424C22.6276 43.3968 23.904 42.978 24.9198 42.1638L26.3238 43.5132C28.3801 45.4956 31.7152 45.4956 33.7715 43.5132C34.7547 42.5686 35.2655 41.3412 35.3105 40.101C36.5957 40.0625 37.8648 39.5709 38.8448 38.6263C39.8279 37.6785 40.3388 36.4511 40.3774 35.2109C41.6832 35.1651 42.9264 34.6401 43.8699 33.7361C44.6506 32.9875 45.1325 32.059 45.3189 31.0887C46.1459 31.2337 46.9954 31.1825 47.799 30.9392C48.6026 30.6958 49.3379 30.2672 49.9456 29.6878C50.4302 29.2285 50.8162 28.6752 51.08 28.0618C51.3438 27.4483 51.4799 26.7876 51.4799 26.1198C51.4799 25.4521 51.3438 24.7913 51.08 24.1779C50.8162 23.5644 50.4302 23.0112 49.9456 22.5518L47.6322 20.3252L48.1045 18.5581C49.0599 14.9453 48.5762 11.1028 46.7551 7.83964C44.0691 3.00091 38.8576 0.0128543 33.2221 0.0128543H29.2701C29.1 0.00442012 28.9296 0.000135059 28.7593 2.56079e-06H26.417ZM34.2984 11.9394L42.0256 19.3838L42.0352 19.3903L47.629 24.7816C47.8107 24.9539 47.9554 25.1614 48.0543 25.3915C48.1532 25.6216 48.2042 25.8694 48.2042 26.1198C48.2042 26.3702 48.1532 26.618 48.0543 26.8481C47.9554 27.0782 47.8107 27.2857 47.629 27.458C47.2537 27.8135 46.7564 28.0116 46.2394 28.0116C45.7225 28.0116 45.2252 27.8135 44.8498 27.458L40.6055 23.3711C40.2944 23.0726 39.8799 22.906 39.4488 22.906C39.0177 22.906 38.6032 23.0726 38.2921 23.3711L38.2472 23.4097C38.0957 23.5532 37.975 23.7261 37.8926 23.9177C37.8101 24.1094 37.7676 24.3159 37.7676 24.5246C37.7676 24.7332 37.8101 24.9397 37.8926 25.1314C37.975 25.3231 38.0957 25.496 38.2472 25.6395L41.5565 28.8267C42.3276 29.5657 42.3276 30.7674 41.5565 31.5096C41.2153 31.8329 40.7721 32.0274 40.3031 32.0597C39.8341 32.0919 39.3684 31.9599 38.9861 31.6863C38.6671 31.4558 38.2774 31.3443 37.8847 31.3713C37.492 31.3983 37.1212 31.5621 36.8367 31.8341C36.5586 32.0999 36.3907 32.4606 36.3663 32.8445C36.3419 33.2285 36.4628 33.6075 36.7049 33.9064C36.9934 34.2677 37.1356 34.7241 37.1035 35.1853C37.0713 35.6464 36.8672 36.0787 36.5314 36.3965C36.1853 36.7247 35.7345 36.9201 35.2583 36.9484C34.7822 36.9766 34.3114 36.8357 33.9289 36.5507C33.6115 36.3126 33.2201 36.1942 32.8239 36.2166C32.4277 36.2389 32.0521 36.4005 31.7634 36.6728C31.4817 36.9383 31.3109 37.3005 31.2853 37.6867C31.2597 38.0729 31.3811 38.4545 31.6252 38.7548C31.9204 39.1209 32.0668 39.5848 32.0353 40.054C32.0037 40.5232 31.7965 40.9633 31.455 41.2866C31.0747 41.6475 30.5704 41.8487 30.0461 41.8487C29.5218 41.8487 29.0175 41.6475 28.6372 41.2866L27.246 39.9468L27.7536 39.4584C28.2383 38.9991 28.6243 38.4458 28.8881 37.8324C29.1519 37.2189 29.2879 36.5582 29.2879 35.8904C29.2879 35.2227 29.1519 34.5619 28.8881 33.9485C28.6243 33.335 28.2383 32.7818 27.7536 32.3224C26.7934 31.4022 25.5233 30.8749 24.1936 30.8445C24.1546 29.5435 23.6039 28.3104 22.6611 27.413C21.6995 26.4932 20.4282 25.967 19.0979 25.9383C19.0589 24.6373 18.5081 23.4042 17.5653 22.5068C16.948 21.9193 16.1997 21.4873 15.3823 21.2465C14.5649 21.0057 13.7019 20.963 12.8647 21.122C12.6529 20.1552 12.1573 19.2736 11.4414 18.5902C10.8926 18.0665 10.2385 17.6655 9.52282 17.414C8.8071 17.1625 8.04605 17.0662 7.29023 17.1315C7.03711 15.2488 7.23421 13.3329 7.86536 11.5411C8.4965 9.74931 9.54368 8.13281 10.9209 6.82434C12.3125 5.49478 13.9811 4.48957 15.807 3.88076C17.6329 3.27196 19.5708 3.07463 21.4819 3.30293L16.807 6.74081C16.2089 7.17542 15.705 7.72676 15.3259 8.36152C14.9468 8.99627 14.7002 9.70128 14.6011 10.434C14.502 11.1667 14.5525 11.9119 14.7494 12.6245C14.9463 13.3372 15.2856 14.0026 15.7468 14.5804C16.6795 15.75 18.0272 16.5148 19.5096 16.7159C20.9919 16.917 22.4947 16.5388 23.7053 15.66L28.7689 11.9426H34.2952L34.2984 11.9394ZM18.7091 9.32724L27.0371 3.21297H28.7593C28.9168 3.21213 29.0743 3.21642 29.2316 3.22582H33.2221C37.7331 3.22582 41.8489 5.61948 43.947 9.40114C45.3671 11.9587 45.7398 14.9307 44.9976 17.7356L44.988 17.7677L36.1202 9.19872C35.8196 8.89723 35.4117 8.72736 34.986 8.72642H28.2388C27.8978 8.72707 27.5658 8.83622 27.2909 9.03807L21.8032 13.0671C21.2642 13.4531 20.598 13.6185 19.941 13.5296C19.284 13.4406 18.6859 13.1039 18.2689 12.5884C18.0746 12.3491 17.9314 12.0725 17.848 11.7757C17.7646 11.4789 17.7429 11.1682 17.7841 10.8627C17.8254 10.5572 17.9287 10.2633 18.0878 9.99928C18.2469 9.73521 18.4583 9.50651 18.7091 9.32724ZM20.1292 36.9909L20.1614 36.9588L22.6611 34.549L22.69 34.5233C23.0674 34.1801 23.5607 33.9924 24.0708 33.9977C24.5809 34.0031 25.0701 34.2012 25.4403 34.5522C25.622 34.7246 25.7667 34.9321 25.8656 35.1621C25.9645 35.3922 26.0155 35.64 26.0155 35.8904C26.0155 36.1409 25.9645 36.3887 25.8656 36.6187C25.7667 36.8488 25.622 37.0563 25.4403 37.2286L22.9374 39.6384C22.562 39.9938 22.0647 40.1919 21.5478 40.1919C21.0308 40.1919 20.5335 39.9938 20.1582 39.6384C19.9788 39.4686 19.8354 39.2646 19.7364 39.0383C19.6375 38.8121 19.5849 38.5683 19.5819 38.3214C19.5789 38.0745 19.6255 37.8295 19.719 37.601C19.8125 37.3724 19.9509 37.1649 20.126 36.9909H20.1292ZM20.3766 32.2935L20.3445 32.3224L17.8448 34.7322L17.8127 34.7611C17.435 35.1029 16.9422 35.2895 16.4329 35.2836C15.9235 35.2776 15.4352 35.0795 15.0656 34.729C14.8859 34.5585 14.7424 34.3535 14.6437 34.1264C14.545 33.8992 14.493 33.6545 14.4909 33.4068C14.4888 33.1591 14.5366 32.9135 14.6315 32.6847C14.7264 32.4559 14.8664 32.2486 15.0431 32.075L15.0656 32.0526L17.5653 29.6428L17.5878 29.6203C17.9648 29.2744 18.459 29.0844 18.9706 29.0886C19.4822 29.0927 19.9732 29.2908 20.3445 29.6428C20.5243 29.8126 20.6682 30.0169 20.7674 30.2434C20.8667 30.4699 20.9194 30.7141 20.9224 30.9614C20.9254 31.2087 20.8787 31.454 20.7849 31.6829C20.6911 31.9118 20.5523 32.1194 20.3766 32.2935ZM15.252 27.413L12.7491 29.8228L12.7266 29.8452C12.3496 30.1911 11.8554 30.3812 11.3438 30.377C10.8322 30.3728 10.3412 30.1748 9.96985 29.8228C9.78814 29.6504 9.64342 29.4429 9.54453 29.2128C9.44564 28.9828 9.39464 28.735 9.39464 28.4846C9.39464 28.2341 9.44564 27.9863 9.54453 27.7563C9.64342 27.5262 9.78814 27.3187 9.96985 27.1464L12.4695 24.7366C12.8451 24.3802 13.343 24.1815 13.8607 24.1815C14.3785 24.1815 14.8764 24.3802 15.252 24.7366C15.4321 24.9072 15.576 25.1123 15.6751 25.3398C15.7741 25.5672 15.8263 25.8123 15.8284 26.0604C15.8305 26.3085 15.7825 26.5544 15.6873 26.7835C15.5921 27.0126 15.4517 27.2202 15.2745 27.3938L15.252 27.413ZM9.12805 23.4964L6.62836 25.9061C6.25321 26.2633 5.7551 26.4625 5.23715 26.4625C4.7192 26.4625 4.22108 26.2633 3.84593 25.9061C3.66372 25.7338 3.51858 25.5261 3.41939 25.2957C3.32019 25.0653 3.26903 24.8172 3.26903 24.5663C3.26903 24.3155 3.32019 24.0673 3.41939 23.837C3.51858 23.6066 3.66372 23.3989 3.84593 23.2265L6.34883 20.8168C6.72419 20.4614 7.22149 20.2632 7.73844 20.2632C8.2554 20.2632 8.7527 20.4614 9.12805 20.8168C9.31026 20.9892 9.45541 21.1969 9.5546 21.4272C9.65379 21.6576 9.70495 21.9058 9.70495 22.1566C9.70495 22.4074 9.65379 22.6556 9.5546 22.886C9.45541 23.1163 9.31026 23.3241 9.12805 23.4964Z" fill="#F7A6FF"/>
</svg>
