<svg width="45" height="45" viewBox="0 0 45 45" fill="none" xmlns="http://www.w3.org/2000/svg">
<path d="M21.9375 0H30.375C30.6734 0 30.9595 0.118527 31.1705 0.329505C31.3815 0.540484 31.5 0.826631 31.5 1.125V5.625C31.5 5.92337 31.3815 6.20952 31.1705 6.4205C30.9595 6.63147 30.6734 6.75 30.375 6.75H23.625V9.0405C27.5972 9.32495 31.3142 11.1036 34.0277 14.0184C36.7413 16.9331 38.2499 20.7676 38.25 24.75H39.9375C41.2802 24.75 42.5678 25.2834 43.5172 26.2328C44.4666 27.1822 45 28.4698 45 29.8125V43.3125C45 43.7601 44.8222 44.1893 44.5057 44.5057C44.1893 44.8222 43.7601 45 43.3125 45H1.6875C1.23995 45 0.810725 44.8222 0.494257 44.5057C0.177789 44.1893 0 43.7601 0 43.3125V29.8125C0 28.4698 0.533369 27.1822 1.48277 26.2328C2.43217 25.2834 3.71984 24.75 5.0625 24.75H6.75C6.74996 20.9622 8.11458 17.3012 10.5939 14.4376C13.0732 11.574 16.5012 9.69954 20.25 9.1575V1.6875C20.25 1.23995 20.4278 0.810725 20.7443 0.494257C21.0607 0.177789 21.4899 0 21.9375 0ZM22.5 12.375C19.2179 12.375 16.0703 13.6788 13.7496 15.9996C11.4288 18.3203 10.125 21.4679 10.125 24.75V26.4375C10.125 26.8851 9.94721 27.3143 9.63074 27.6307C9.31428 27.9472 8.88505 28.125 8.4375 28.125H5.0625C4.61495 28.125 4.18572 28.3028 3.86926 28.6193C3.55279 28.9357 3.375 29.3649 3.375 29.8125V41.625H16.875V35.4375C16.875 34.9899 17.0528 34.5607 17.3693 34.2443C17.6857 33.9278 18.1149 33.75 18.5625 33.75H26.4375C26.8851 33.75 27.3143 33.9278 27.6307 34.2443C27.9472 34.5607 28.125 34.9899 28.125 35.4375V41.625H41.625V29.8125C41.625 29.3649 41.4472 28.9357 41.1307 28.6193C40.8143 28.3028 40.3851 28.125 39.9375 28.125H36.5625C36.1149 28.125 35.6857 27.9472 35.3693 27.6307C35.0528 27.3143 34.875 26.8851 34.875 26.4375V24.75C34.875 21.4679 33.5712 18.3203 31.2504 15.9996C28.9297 13.6788 25.7821 12.375 22.5 12.375ZM24.75 37.125H20.25V41.625H24.75V37.125Z" fill="#C293FE"/>
</svg>
