<?xml version="1.0" encoding="UTF-8"?>
<svg xmlns="http://www.w3.org/2000/svg" xmlns:xlink="http://www.w3.org/1999/xlink" width="65px" height="65px" viewBox="0 0 65 65" version="1.1">
<g id="surface1">
<path style=" stroke:none;fill-rule:nonzero;fill:rgb(0%,0%,0%);fill-opacity:1;" d="M 29.355469 8.058594 C 29.042969 8.109375 28.4375 8.34375 28.160156 8.519531 C 27.789062 8.757812 27.421875 9.175781 27.214844 9.597656 L 27.027344 10 L 25.007812 10 L 24.957031 10.183594 C 24.921875 10.292969 24.707031 11.148438 24.476562 12.097656 C 24.238281 13.050781 24.035156 13.863281 24.019531 13.910156 C 23.996094 13.992188 24.308594 14 30 14 C 35.695312 14 36.003906 13.992188 35.980469 13.910156 C 35.964844 13.863281 35.761719 13.050781 35.523438 12.097656 C 35.289062 11.148438 35.074219 10.292969 35.042969 10.183594 L 34.992188 10 L 33.972656 10 C 33.042969 10 32.945312 9.992188 32.917969 9.90625 C 32.648438 9.066406 31.914062 8.414062 30.949219 8.125 C 30.617188 8.027344 29.722656 7.984375 29.355469 8.058594 Z M 30.59375 9.074219 C 30.769531 9.117188 31.027344 9.207031 31.164062 9.289062 C 31.398438 9.417969 31.851562 9.851562 31.851562 9.949219 C 31.851562 9.988281 31.246094 10 30 10 C 28.746094 10 28.148438 9.988281 28.148438 9.949219 C 28.148438 9.847656 28.601562 9.417969 28.847656 9.28125 C 29.328125 9.023438 30.015625 8.9375 30.59375 9.074219 Z M 30.59375 9.074219 "/>
<path style=" stroke:none;fill-rule:nonzero;fill:rgb(0%,0%,0%);fill-opacity:1;" d="M 17.789062 11.074219 C 16.785156 11.273438 15.839844 12.011719 15.386719 12.953125 C 14.957031 13.835938 14.996094 12.011719 15.007812 31.675781 L 15.027344 49.171875 L 15.160156 49.535156 C 15.375 50.117188 15.601562 50.5 15.945312 50.867188 C 16.402344 51.34375 16.761719 51.582031 17.472656 51.847656 L 17.824219 51.976562 L 25.226562 51.988281 L 32.625 52 L 32.351562 51.8125 C 31.988281 51.558594 30.871094 50.675781 30.636719 50.460938 C 30.484375 50.308594 30.464844 50.269531 30.503906 50.167969 C 30.53125 50.097656 30.546875 50.035156 30.546875 50.023438 C 30.546875 50.007812 27.800781 49.996094 24.4375 49.992188 L 18.328125 49.972656 L 17.988281 49.8125 C 17.535156 49.589844 17.253906 49.257812 17.078125 48.734375 C 17.007812 48.511719 17 47.007812 17 31.472656 L 17 14.449219 L 17.125 14.140625 C 17.300781 13.707031 17.570312 13.40625 17.980469 13.199219 L 18.320312 13.023438 L 20.769531 13.011719 L 23.222656 12.996094 L 23.464844 12.035156 C 23.597656 11.503906 23.699219 11.058594 23.699219 11.035156 C 23.699219 11.015625 22.445312 11.003906 20.917969 11.003906 C 18.804688 11.007812 18.042969 11.023438 17.789062 11.074219 Z M 15.898438 12.414062 C 15.898438 12.425781 15.847656 12.476562 15.789062 12.53125 L 15.675781 12.628906 L 15.769531 12.507812 C 15.859375 12.40625 15.898438 12.375 15.898438 12.414062 Z M 15.898438 12.414062 "/>
<path style=" stroke:none;fill-rule:nonzero;fill:rgb(0%,0%,0%);fill-opacity:1;" d="M 36.296875 11.035156 C 36.296875 11.058594 36.40625 11.503906 36.535156 12.035156 L 36.777344 12.996094 L 39.226562 13.011719 L 41.675781 13.023438 L 42.007812 13.191406 C 42.398438 13.371094 42.652344 13.636719 42.84375 14.050781 L 42.972656 14.324219 L 42.988281 21.203125 L 43 28.085938 L 43.457031 28.21875 C 43.898438 28.347656 44.585938 28.664062 44.863281 28.859375 L 44.996094 28.960938 L 44.988281 21.414062 C 44.96875 12.964844 45.003906 13.734375 44.597656 12.898438 C 44.285156 12.277344 43.707031 11.707031 43.050781 11.386719 C 42.285156 11.003906 42.210938 11.003906 39.046875 11.003906 C 37.53125 11.003906 36.296875 11.015625 36.296875 11.035156 Z M 36.296875 11.035156 "/>
<path style=" stroke:none;fill-rule:nonzero;fill:rgb(0%,0%,0%);fill-opacity:1;" d="M 27.398438 16.011719 C 26.011719 16.9375 24.601562 18.46875 23.992188 19.714844 L 23.820312 20.054688 L 23.753906 19.867188 C 23.652344 19.578125 23.285156 18.996094 23.058594 18.785156 L 22.863281 18.597656 L 22.777344 18.90625 C 22.683594 19.246094 22.546875 19.476562 22.410156 19.523438 C 22.332031 19.546875 22.371094 19.601562 22.601562 19.84375 C 22.949219 20.195312 23.246094 20.757812 23.382812 21.300781 C 23.433594 21.503906 23.472656 21.683594 23.476562 21.695312 C 23.488281 21.699219 23.574219 21.644531 23.675781 21.570312 C 23.777344 21.496094 23.96875 21.394531 24.109375 21.34375 C 24.351562 21.265625 24.359375 21.261719 24.527344 20.84375 C 25.023438 19.613281 25.59375 18.75 26.496094 17.847656 C 27.019531 17.328125 27.789062 16.667969 28.1875 16.417969 C 28.199219 16.40625 28.136719 16.347656 28.054688 16.265625 C 27.964844 16.1875 27.867188 16.046875 27.832031 15.945312 L 27.773438 15.765625 Z M 27.398438 16.011719 "/>
<path style=" stroke:none;fill-rule:nonzero;fill:rgb(0%,0%,0%);fill-opacity:1;" d="M 21.820312 17.148438 C 21.457031 17.316406 21.191406 17.605469 21.085938 17.953125 C 21.011719 18.175781 21 18.472656 21 20.003906 C 21 21.527344 21.011719 21.824219 21.085938 22.042969 C 21.191406 22.394531 21.457031 22.683594 21.820312 22.855469 L 22.125 23 L 25.875 23 L 26.179688 22.855469 C 26.367188 22.773438 26.554688 22.632812 26.664062 22.496094 C 26.988281 22.113281 27.003906 22 26.988281 19.882812 C 26.980469 18.851562 26.953125 17.988281 26.929688 17.964844 C 26.910156 17.941406 26.746094 18.078125 26.570312 18.269531 L 26.25 18.609375 L 26.25 20.175781 C 26.25 22.410156 26.417969 22.257812 23.941406 22.242188 C 21.558594 22.21875 21.75 22.417969 21.75 20.003906 C 21.75 18.15625 21.761719 18.105469 22.066406 17.878906 C 22.203125 17.777344 22.289062 17.773438 23.558594 17.761719 L 24.898438 17.746094 L 25.113281 17.507812 C 25.234375 17.382812 25.390625 17.214844 25.464844 17.140625 L 25.605469 17 L 22.125 17 Z M 21.820312 17.148438 "/>
<path style=" stroke:none;fill-rule:nonzero;fill:rgb(0%,0%,0%);fill-opacity:1;" d="M 29.109375 19.601562 C 29.019531 19.6875 29 19.757812 29 20.003906 C 29 20.238281 29.019531 20.3125 29.109375 20.402344 C 29.222656 20.5 29.261719 20.5 34 20.5 C 38.742188 20.5 38.78125 20.5 38.894531 20.402344 C 38.976562 20.3125 39 20.238281 39 20.003906 C 39 19.757812 38.976562 19.6875 38.894531 19.601562 C 38.78125 19.5 38.742188 19.5 34 19.5 C 29.261719 19.5 29.222656 19.5 29.109375 19.601562 Z M 29.109375 19.601562 "/>
<path style=" stroke:none;fill-rule:nonzero;fill:rgb(0%,0%,0%);fill-opacity:1;" d="M 27.296875 24.085938 C 25.863281 25.097656 24.59375 26.484375 23.992188 27.714844 L 23.820312 28.054688 L 23.753906 27.867188 C 23.589844 27.394531 22.886719 26.46875 22.835938 26.65625 C 22.824219 26.695312 22.789062 26.835938 22.753906 26.964844 C 22.695312 27.222656 22.480469 27.550781 22.378906 27.550781 C 22.332031 27.550781 22.433594 27.679688 22.597656 27.832031 C 22.9375 28.179688 23.253906 28.765625 23.382812 29.300781 C 23.433594 29.503906 23.472656 29.679688 23.476562 29.691406 C 23.484375 29.703125 23.609375 29.621094 23.75 29.53125 C 23.894531 29.429688 24.070312 29.335938 24.144531 29.316406 C 24.21875 29.304688 24.289062 29.285156 24.3125 29.285156 C 24.335938 29.277344 24.449219 29.042969 24.566406 28.746094 C 24.808594 28.148438 25.226562 27.394531 25.605469 26.851562 C 26.054688 26.207031 27.574219 24.769531 28.136719 24.453125 C 28.199219 24.421875 28.1875 24.390625 28.054688 24.269531 C 27.96875 24.1875 27.867188 24.042969 27.832031 23.941406 L 27.773438 23.753906 Z M 27.296875 24.085938 "/>
<path style=" stroke:none;fill-rule:nonzero;fill:rgb(0%,0%,0%);fill-opacity:1;" d="M 22.003906 25.058594 C 21.59375 25.175781 21.273438 25.492188 21.097656 25.949219 C 21.011719 26.179688 21 26.34375 21 27.996094 C 21 29.539062 21.011719 29.824219 21.085938 30.046875 C 21.191406 30.367188 21.464844 30.6875 21.78125 30.851562 L 22.027344 30.976562 L 23.894531 30.988281 C 25.539062 31.003906 25.796875 30.992188 26.035156 30.921875 C 26.367188 30.8125 26.683594 30.542969 26.851562 30.21875 L 26.976562 29.972656 L 26.976562 27.992188 C 26.976562 26.902344 26.953125 25.988281 26.929688 25.964844 C 26.910156 25.945312 26.746094 26.078125 26.570312 26.269531 L 26.25 26.609375 L 26.25 28.171875 C 26.25 30.402344 26.417969 30.25 24.003906 30.25 C 22.15625 30.25 22.105469 30.238281 21.882812 29.933594 C 21.78125 29.796875 21.773438 29.734375 21.773438 27.976562 L 21.773438 26.15625 L 21.898438 26.023438 C 22.136719 25.761719 22.242188 25.75 23.613281 25.75 L 24.882812 25.75 L 25.242188 25.375 L 25.617188 25 L 23.894531 25.007812 C 22.949219 25.007812 22.101562 25.03125 22.003906 25.058594 Z M 22.003906 25.058594 "/>
<path style=" stroke:none;fill-rule:nonzero;fill:rgb(0%,0%,0%);fill-opacity:1;" d="M 29.132812 27.601562 C 29.011719 27.691406 29 27.742188 29 27.996094 C 29 28.230469 29.019531 28.300781 29.113281 28.390625 L 29.226562 28.5 L 38.785156 28.5 L 38.894531 28.386719 C 39.050781 28.21875 39.046875 27.75 38.894531 27.601562 C 38.78125 27.5 38.742188 27.5 34.019531 27.5 C 29.285156 27.5 29.265625 27.5 29.132812 27.601562 Z M 29.132812 27.601562 "/>
<path style=" stroke:none;fill-rule:nonzero;fill:rgb(0%,0%,0%);fill-opacity:1;" d="M 41.183594 29.082031 C 39.453125 29.464844 38.125 30.785156 37.71875 32.527344 C 37.644531 32.828125 37.625 33.105469 37.628906 33.703125 C 37.632812 34.644531 37.71875 35.015625 38.125 35.828125 C 38.539062 36.667969 39.253906 37.398438 40.054688 37.796875 C 41.070312 38.316406 42.097656 38.417969 43.140625 38.121094 C 44.34375 37.769531 45.332031 36.933594 45.90625 35.773438 C 46.296875 34.984375 46.367188 34.632812 46.367188 33.621094 C 46.367188 32.851562 46.359375 32.742188 46.234375 32.34375 C 45.742188 30.722656 44.671875 29.617188 43.175781 29.175781 C 42.601562 29.007812 41.707031 28.960938 41.183594 29.082031 Z M 41.183594 29.082031 "/>
<path style=" stroke:none;fill-rule:nonzero;fill:rgb(0%,0%,0%);fill-opacity:1;" d="M 22.003906 33.054688 C 21.585938 33.183594 21.214844 33.539062 21.078125 33.960938 C 20.960938 34.339844 20.960938 37.664062 21.085938 38.046875 C 21.191406 38.367188 21.464844 38.691406 21.78125 38.847656 L 22.027344 38.976562 L 23.890625 38.988281 C 26.105469 39.003906 26.152344 39 26.582031 38.582031 C 27 38.152344 27.003906 38.109375 26.988281 35.890625 C 26.976562 34.046875 26.976562 34.019531 26.859375 33.796875 C 26.699219 33.5 26.484375 33.277344 26.203125 33.136719 C 25.976562 33.023438 25.945312 33.023438 24.074219 33.011719 C 22.929688 33.007812 22.113281 33.023438 22.003906 33.054688 Z M 25.847656 33.835938 C 25.945312 33.882812 26.074219 34 26.136719 34.097656 C 26.25 34.265625 26.25 34.277344 26.25 35.992188 C 26.25 37.632812 26.242188 37.734375 26.152344 37.886719 C 26.097656 37.980469 25.976562 38.097656 25.894531 38.148438 C 25.734375 38.242188 25.632812 38.25 23.996094 38.25 C 21.558594 38.25 21.738281 38.441406 21.761719 35.941406 C 21.78125 33.5625 21.585938 33.753906 24.003906 33.753906 C 25.492188 33.753906 25.695312 33.757812 25.847656 33.835938 Z M 25.847656 33.835938 "/>
<path style=" stroke:none;fill-rule:nonzero;fill:rgb(0%,0%,0%);fill-opacity:1;" d="M 29.109375 35.613281 C 28.949219 35.785156 28.957031 36.242188 29.113281 36.386719 L 29.226562 36.5 L 33.265625 36.5 C 35.484375 36.5 37.300781 36.488281 37.300781 36.472656 C 37.300781 36.460938 37.25 36.347656 37.195312 36.234375 C 37.132812 36.121094 37.046875 35.914062 37.003906 35.773438 L 36.914062 35.523438 L 33.0625 35.507812 L 29.222656 35.5 Z M 29.109375 35.613281 "/>
<path style=" stroke:none;fill-rule:nonzero;fill:rgb(0%,0%,0%);fill-opacity:1;" d="M 44.867188 38.425781 C 44.777344 38.492188 44.777344 38.492188 44.890625 38.496094 C 44.953125 38.496094 44.996094 38.46875 44.996094 38.425781 C 44.996094 38.328125 44.992188 38.328125 44.867188 38.425781 Z M 44.867188 38.425781 "/>
<path style=" stroke:none;fill-rule:nonzero;fill:rgb(0%,0%,0%);fill-opacity:1;" d="M 35.914062 39.574219 C 34.578125 39.863281 33.441406 41.339844 33.199219 43.089844 C 33.09375 43.859375 33.03125 44.191406 32.550781 46.273438 C 32.449219 46.707031 32.171875 47.769531 31.84375 49 C 31.734375 49.425781 31.632812 49.820312 31.613281 49.871094 C 31.597656 49.992188 31.867188 50.234375 32.714844 50.835938 C 33.5625 51.445312 35.320312 52.503906 35.378906 52.433594 C 35.390625 52.421875 35.472656 52.003906 35.574219 51.496094 C 35.675781 50.988281 35.875 49.964844 36.027344 49.222656 L 36.292969 47.875 L 36.296875 50.375 L 36.296875 52.875 L 36.890625 53.082031 C 38.71875 53.738281 40.070312 53.976562 42 53.976562 C 43.921875 53.976562 45.300781 53.730469 47.109375 53.082031 L 47.699219 52.875 L 47.710938 47.875 L 47.875 48.699219 C 47.964844 49.15625 48.167969 50.175781 48.320312 50.96875 C 48.472656 51.761719 48.609375 52.421875 48.613281 52.433594 C 48.644531 52.457031 49.242188 52.140625 49.800781 51.808594 C 50.464844 51.425781 51.007812 51.050781 50.972656 51 C 50.960938 50.972656 50.972656 50.9375 51.007812 50.921875 C 51.046875 50.898438 51.050781 50.90625 51.03125 50.9375 C 50.949219 51.070312 51.097656 50.984375 51.554688 50.640625 C 52.421875 49.980469 52.40625 49.996094 52.371094 49.816406 C 52.355469 49.726562 52.320312 49.664062 52.292969 49.679688 C 52.269531 49.691406 52.265625 49.675781 52.277344 49.640625 C 52.289062 49.609375 52.199219 49.191406 52.074219 48.726562 C 51.542969 46.730469 51.109375 44.902344 50.929688 43.851562 C 50.675781 42.402344 50.640625 42.273438 50.441406 41.820312 C 49.894531 40.570312 49.070312 39.785156 48.066406 39.574219 C 47.800781 39.519531 47.277344 39.503906 45.742188 39.503906 L 43.757812 39.503906 L 43.328125 40.824219 L 40.6875 40.824219 L 40.46875 40.164062 L 40.242188 39.503906 L 38.234375 39.507812 C 36.738281 39.507812 36.144531 39.523438 35.914062 39.574219 Z M 43.320312 41.585938 C 43.332031 41.636719 43.378906 41.867188 43.417969 42.097656 C 43.464844 42.335938 43.566406 42.886719 43.648438 43.328125 C 43.726562 43.769531 43.910156 44.765625 44.050781 45.550781 C 44.191406 46.335938 44.378906 47.328125 44.457031 47.761719 C 44.535156 48.203125 44.597656 48.609375 44.597656 48.664062 C 44.597656 48.75 44.28125 49.007812 43.292969 49.738281 L 42 50.707031 L 40.703125 49.738281 C 39.695312 48.992188 39.40625 48.75 39.40625 48.664062 C 39.402344 48.597656 39.507812 47.992188 39.632812 47.316406 C 39.914062 45.757812 40.171875 44.316406 40.324219 43.472656 C 40.511719 42.429688 40.652344 41.628906 40.675781 41.5625 C 40.691406 41.515625 40.996094 41.5 41.996094 41.5 C 43.191406 41.5 43.292969 41.503906 43.320312 41.585938 Z M 43.320312 41.585938 "/>
<path style=" stroke:none;fill-rule:nonzero;fill:rgb(0%,0%,0%);fill-opacity:1;" d="M 40.957031 42.007812 C 40.878906 42.09375 40.882812 42.3125 40.964844 42.402344 C 40.996094 42.449219 41.25 42.617188 41.527344 42.773438 C 41.796875 42.933594 42.203125 43.167969 42.425781 43.300781 C 42.90625 43.585938 43.230469 43.75 43.300781 43.75 C 43.371094 43.75 43.363281 43.46875 43.28125 43.3125 C 43.214844 43.179688 42.660156 42.835938 41.652344 42.285156 C 41.5 42.199219 41.320312 42.09375 41.257812 42.042969 C 41.117188 41.933594 41.042969 41.921875 40.957031 42.007812 Z M 40.957031 42.007812 "/>
<path style=" stroke:none;fill-rule:nonzero;fill:rgb(0%,0%,0%);fill-opacity:1;" d="M 40.660156 43.710938 C 40.570312 43.800781 40.589844 44.074219 40.691406 44.164062 C 40.730469 44.203125 41.21875 44.488281 41.746094 44.800781 C 42.285156 45.109375 42.933594 45.484375 43.179688 45.628906 C 43.429688 45.78125 43.667969 45.902344 43.699219 45.902344 C 43.785156 45.902344 43.738281 45.539062 43.632812 45.386719 C 43.59375 45.324219 42.972656 44.929688 42.246094 44.511719 C 40.609375 43.582031 40.730469 43.636719 40.660156 43.710938 Z M 40.660156 43.710938 "/>
<path style=" stroke:none;fill-rule:nonzero;fill:rgb(0%,0%,0%);fill-opacity:1;" d="M 40.296875 45.523438 C 40.191406 45.742188 40.324219 45.878906 41.027344 46.285156 C 43.332031 47.621094 44.011719 48 44.074219 48 C 44.164062 48 44.167969 47.9375 44.101562 47.6875 C 44.03125 47.453125 43.941406 47.382812 42.875 46.773438 C 40.894531 45.636719 40.472656 45.398438 40.410156 45.398438 C 40.375 45.398438 40.324219 45.453125 40.296875 45.523438 Z M 40.296875 45.523438 "/>
<path style=" stroke:none;fill-rule:nonzero;fill:rgb(0%,0%,0%);fill-opacity:1;" d="M 39.988281 47.226562 C 39.917969 47.382812 40.003906 47.597656 40.191406 47.707031 C 40.265625 47.746094 40.78125 48.050781 41.347656 48.378906 C 41.917969 48.699219 42.527344 49.050781 42.710938 49.160156 C 42.894531 49.261719 43.101562 49.347656 43.167969 49.347656 C 43.328125 49.347656 43.523438 49.191406 43.484375 49.089844 C 43.457031 49.019531 42.65625 48.542969 40.75 47.453125 C 40.40625 47.261719 40.113281 47.101562 40.082031 47.101562 C 40.066406 47.101562 40.027344 47.152344 39.988281 47.226562 Z M 39.988281 47.226562 "/>
<path style=" stroke:none;fill-rule:nonzero;fill:rgb(0%,0%,0%);fill-opacity:1;" d="M 22.003906 41.054688 C 21.558594 41.1875 21.148438 41.625 21.050781 42.074219 C 21.011719 42.238281 21 42.933594 21.011719 44.152344 C 21.023438 45.90625 21.027344 45.984375 21.136719 46.199219 C 21.265625 46.476562 21.496094 46.703125 21.800781 46.859375 C 22.027344 46.972656 22.027344 46.972656 24.003906 46.972656 L 25.976562 46.972656 L 26.226562 46.835938 C 26.523438 46.683594 26.699219 46.503906 26.859375 46.199219 C 26.976562 45.980469 26.976562 45.957031 26.988281 44.113281 C 27.003906 42.007812 26.988281 41.882812 26.671875 41.511719 C 26.570312 41.390625 26.371094 41.234375 26.230469 41.160156 L 25.976562 41.027344 L 24.074219 41.015625 C 22.941406 41.007812 22.105469 41.027344 22.003906 41.054688 Z M 25.894531 41.847656 C 25.976562 41.90625 26.097656 42.019531 26.152344 42.109375 C 26.242188 42.265625 26.25 42.363281 26.25 44.003906 C 26.25 46.429688 26.429688 46.25 24.003906 46.25 C 22.15625 46.25 22.105469 46.238281 21.882812 45.933594 C 21.78125 45.792969 21.773438 45.738281 21.773438 44 C 21.773438 42.265625 21.78125 42.203125 21.882812 42.0625 C 22.105469 41.753906 22.15625 41.746094 24.023438 41.746094 C 25.632812 41.746094 25.734375 41.753906 25.894531 41.847656 Z M 25.894531 41.847656 "/>
<path style=" stroke:none;fill-rule:nonzero;fill:rgb(0%,0%,0%);fill-opacity:1;" d="M 29.109375 43.597656 C 28.949219 43.757812 28.949219 44.234375 29.113281 44.386719 C 29.226562 44.496094 29.265625 44.5 30.582031 44.5 L 31.9375 44.5 L 32.015625 44.113281 C 32.058594 43.898438 32.097656 43.675781 32.097656 43.609375 L 32.097656 43.503906 L 30.660156 43.503906 C 29.277344 43.503906 29.214844 43.503906 29.109375 43.597656 Z M 29.109375 43.597656 "/>
<path style=" stroke:none;fill-rule:nonzero;fill:rgb(0%,0%,0%);fill-opacity:1;" d="M 31.265625 58.476562 C 31.246094 58.523438 31.246094 58.566406 31.265625 58.578125 C 31.296875 58.613281 33.324219 58.605469 33.53125 58.566406 C 33.621094 58.554688 33.703125 58.523438 33.703125 58.5 C 33.703125 58.4375 33.132812 58.398438 32.191406 58.398438 C 31.429688 58.398438 31.292969 58.410156 31.265625 58.476562 Z M 31.265625 58.476562 "/>
</g>
</svg>
