<?xml version="1.0" encoding="UTF-8"?>
<svg xmlns="http://www.w3.org/2000/svg" xmlns:xlink="http://www.w3.org/1999/xlink" width="45px" height="45px" viewBox="0 0 45 45" version="1.1">
<g id="surface1">
<path style=" stroke:none;fill-rule:nonzero;fill:rgb(0%,0%,0%);fill-opacity:1;" d="M 19.816406 0.21875 C 16.574219 0.601562 12.570312 2.140625 9.789062 4.023438 C 8.289062 5.042969 5.925781 7.265625 4.84375 8.667969 C -1.980469 17.535156 -1.402344 29.90625 6.246094 37.933594 C 14.792969 46.941406 28.964844 47.320312 37.933594 38.792969 C 44 33.050781 46.382812 24.441406 44.140625 16.476562 C 43.519531 14.273438 41.757812 10.710938 40.457031 8.988281 C 38.433594 6.34375 35.171875 3.664062 32.269531 2.28125 C 28.523438 0.519531 23.78125 -0.28125 19.816406 0.21875 Z M 26.082031 2.300781 C 33.988281 3.683594 40.277344 9.527344 42.476562 17.574219 C 43.097656 19.816406 43.097656 25.222656 42.476562 27.464844 C 40.414062 34.972656 34.972656 40.414062 27.464844 42.476562 C 25.222656 43.097656 19.816406 43.097656 17.574219 42.476562 C 10.050781 40.414062 4.503906 34.871094 2.582031 27.464844 C 2.0625 25.460938 1.882812 21.800781 2.183594 19.597656 C 3.824219 8.1875 14.714844 0.320312 26.082031 2.300781 Z M 26.082031 2.300781 "/>
<path style=" stroke:none;fill-rule:nonzero;fill:rgb(0%,0%,0%);fill-opacity:1;" d="M 24.960938 10.269531 C 24.683594 10.710938 24.703125 10.75 28.066406 12.691406 C 31.589844 14.714844 31.808594 14.773438 31.828125 13.691406 C 31.828125 13.351562 31.226562 12.910156 28.824219 11.53125 C 27.183594 10.589844 25.703125 9.808594 25.5625 9.808594 C 25.402344 9.808594 25.140625 10.007812 24.960938 10.269531 Z M 24.960938 10.269531 "/>
<path style=" stroke:none;fill-rule:nonzero;fill:rgb(0%,0%,0%);fill-opacity:1;" d="M 19.957031 18.875 C 17.675781 22.859375 15.792969 26.203125 15.773438 26.324219 C 15.753906 26.582031 22.160156 30.285156 22.398438 30.148438 C 22.5 30.066406 23.179688 29.003906 23.882812 27.765625 C 24.601562 26.542969 26.484375 23.261719 28.085938 20.476562 L 30.988281 15.453125 L 27.644531 13.53125 C 25.804688 12.472656 24.261719 11.609375 24.203125 11.609375 C 24.160156 11.628906 22.238281 14.894531 19.957031 18.875 Z M 19.957031 18.875 "/>
<path style=" stroke:none;fill-rule:nonzero;fill:rgb(0%,0%,0%);fill-opacity:1;" d="M 14.832031 27.765625 C 14.671875 28.105469 14.671875 28.34375 14.792969 28.503906 C 14.933594 28.664062 14.875 29.988281 14.59375 32.429688 C 14.351562 34.710938 14.273438 36.171875 14.394531 36.292969 C 14.511719 36.414062 15.753906 35.632812 17.675781 34.25 C 19.378906 33.03125 20.898438 32.027344 21.078125 32.027344 C 21.378906 32.027344 21.960938 31.289062 21.78125 31.128906 C 21.71875 31.066406 15.953125 27.726562 15.394531 27.40625 C 15.152344 27.285156 15.011719 27.363281 14.832031 27.765625 Z M 14.832031 27.765625 "/>
</g>
</svg>
