<?xml version="1.0" encoding="UTF-8"?>
<svg xmlns="http://www.w3.org/2000/svg" xmlns:xlink="http://www.w3.org/1999/xlink" width="44px" height="45px" viewBox="0 0 44 45" version="1.1">
<g id="surface1">
<path style=" stroke:none;fill-rule:nonzero;fill:rgb(0%,0%,0%);fill-opacity:1;" d="M 20.898438 2.121094 C 16.585938 2.390625 12.585938 3.917969 9.261719 6.558594 C 8.375 7.261719 6.773438 8.859375 6.066406 9.742188 C 3.628906 12.800781 2.179688 16.292969 1.707031 20.269531 C 1.582031 21.332031 1.582031 23.546875 1.707031 24.605469 C 2.179688 28.582031 3.628906 32.078125 6.066406 35.136719 C 6.773438 36.019531 8.375 37.617188 9.261719 38.320312 C 12.316406 40.746094 15.839844 42.195312 19.824219 42.664062 C 20.890625 42.792969 23.109375 42.792969 24.175781 42.664062 C 28.160156 42.195312 31.683594 40.746094 34.738281 38.320312 C 35.625 37.617188 37.226562 36.019531 37.933594 35.136719 C 40.058594 32.46875 41.460938 29.398438 42.078125 26.058594 C 42.3125 24.757812 42.382812 23.949219 42.382812 22.4375 C 42.382812 20.929688 42.3125 20.117188 42.078125 18.816406 C 41.460938 15.476562 40.058594 12.40625 37.933594 9.742188 C 37.226562 8.859375 35.625 7.261719 34.738281 6.558594 C 31.695312 4.140625 28.109375 2.660156 24.199219 2.21875 C 23.53125 2.140625 21.519531 2.082031 20.898438 2.121094 Z M 19.648438 11.707031 C 21.300781 12.003906 22.550781 13.167969 23.023438 14.84375 C 23.078125 15.054688 23.152344 15.484375 23.1875 15.800781 C 23.25 16.363281 23.25 16.371094 23.410156 16.46875 C 23.515625 16.527344 23.628906 16.664062 23.707031 16.84375 C 24.179688 17.796875 23.648438 19.445312 22.871094 19.445312 L 22.664062 19.445312 L 22.582031 19.730469 C 22.09375 21.515625 21.472656 22.664062 20.667969 23.265625 C 19.589844 24.082031 17.710938 24.117188 16.496094 23.351562 C 15.640625 22.8125 15.042969 21.820312 14.554688 20.132812 C 14.375 19.527344 14.324219 19.429688 14.175781 19.429688 C 14.042969 19.429688 13.761719 19.167969 13.609375 18.90625 C 13.160156 18.121094 13.246094 16.792969 13.761719 16.492188 C 13.894531 16.410156 13.910156 16.371094 13.941406 16.042969 C 14.023438 15.136719 14.25 14.324219 14.585938 13.722656 C 15.523438 12.0625 17.402344 11.3125 19.648438 11.707031 Z M 27.960938 14.101562 C 28.507812 14.257812 28.898438 14.457031 29.296875 14.785156 C 30.125 15.445312 30.648438 16.511719 30.734375 17.707031 C 30.757812 18.078125 30.78125 18.160156 30.855469 18.179688 C 31.019531 18.238281 31.203125 18.53125 31.296875 18.890625 C 31.507812 19.75 31.023438 20.859375 30.441406 20.859375 C 30.292969 20.859375 30.238281 20.878906 30.238281 20.933594 C 30.238281 21.09375 29.734375 22.527344 29.558594 22.871094 C 29.039062 23.890625 28.34375 24.5 27.46875 24.707031 C 27.042969 24.804688 26.160156 24.804688 25.738281 24.707031 C 24.554688 24.425781 23.761719 23.550781 23.226562 21.933594 L 23.078125 21.476562 L 23.269531 20.902344 C 23.453125 20.367188 23.472656 20.328125 23.65625 20.234375 C 23.898438 20.113281 24.261719 19.746094 24.433594 19.449219 C 24.703125 19 24.824219 18.53125 24.851562 17.871094 C 24.878906 17.1875 24.828125 16.875 24.625 16.425781 C 24.554688 16.277344 24.429688 16.085938 24.359375 15.992188 C 24.242188 15.867188 24.199219 15.734375 24.128906 15.277344 L 24.035156 14.71875 L 24.160156 14.625 C 24.511719 14.355469 25.117188 14.109375 25.710938 13.992188 C 26.296875 13.882812 27.390625 13.933594 27.960938 14.101562 Z M 23.105469 24.808594 C 23.664062 25.109375 24.449219 25.433594 25.488281 25.773438 C 27.191406 26.328125 27.957031 26.8125 28.363281 27.585938 C 28.644531 28.113281 28.703125 28.464844 28.703125 29.65625 C 28.703125 30.574219 28.6875 30.699219 28.59375 30.90625 C 28.46875 31.183594 28.277344 31.390625 28.011719 31.53125 L 27.808594 31.644531 L 18.675781 31.660156 C 8.648438 31.667969 9.234375 31.691406 8.839844 31.363281 C 8.738281 31.28125 8.601562 31.101562 8.535156 30.96875 C 8.421875 30.734375 8.417969 30.679688 8.417969 29.605469 C 8.417969 28.042969 8.539062 27.640625 9.210938 26.976562 C 9.75 26.441406 10.441406 26.09375 11.796875 25.683594 C 12.589844 25.449219 13.367188 25.136719 13.984375 24.816406 C 14.222656 24.6875 14.398438 24.632812 14.546875 24.632812 C 14.796875 24.632812 15.125 24.773438 15.277344 24.941406 C 15.347656 25.023438 15.6875 26.003906 16.257812 27.820312 C 16.742188 29.332031 17.144531 30.539062 17.160156 30.496094 C 17.175781 30.457031 17.304688 29.75 17.445312 28.941406 C 17.589844 28.125 17.726562 27.390625 17.75 27.300781 C 17.777344 27.203125 17.773438 27.121094 17.742188 27.089844 C 17.691406 27.039062 17.445312 25.582031 17.445312 25.308594 C 17.445312 25.199219 17.476562 25.125 17.542969 25.089844 C 17.605469 25.058594 18.023438 25.039062 18.546875 25.039062 C 19.070312 25.039062 19.488281 25.058594 19.550781 25.089844 C 19.621094 25.132812 19.648438 25.199219 19.648438 25.335938 C 19.640625 25.582031 19.421875 26.992188 19.371094 27.070312 C 19.335938 27.128906 19.886719 30.433594 19.949219 30.507812 C 19.96875 30.527344 20.382812 29.277344 20.875 27.730469 C 21.367188 26.1875 21.804688 24.875 21.847656 24.824219 C 21.964844 24.675781 22.300781 24.574219 22.558594 24.605469 C 22.6875 24.621094 22.929688 24.714844 23.105469 24.808594 Z M 30.800781 25.671875 C 31.347656 25.957031 31.832031 26.152344 32.882812 26.492188 C 34.519531 27.027344 35.21875 27.578125 35.492188 28.527344 C 35.59375 28.894531 35.640625 30.382812 35.558594 30.777344 C 35.507812 31.03125 35.457031 31.125 35.257812 31.316406 C 35.113281 31.464844 34.945312 31.578125 34.816406 31.613281 C 34.566406 31.679688 29.367188 31.695312 29.367188 31.625 C 29.367188 31.597656 29.429688 31.445312 29.511719 31.28125 L 29.648438 30.980469 L 29.648438 29.605469 C 29.648438 28.074219 29.632812 27.980469 29.28125 27.222656 L 29.101562 26.835938 L 29.289062 26.226562 C 29.398438 25.886719 29.515625 25.605469 29.566406 25.574219 C 29.945312 25.34375 30.222656 25.367188 30.800781 25.671875 Z M 30.800781 25.671875 "/>
</g>
</svg>
