<svg width="18" height="18" viewBox="0 0 18 18" fill="none" xmlns="http://www.w3.org/2000/svg">
<path d="M8.99939 0.75C8.49522 0.75 8.08272 1.1625 8.08272 1.66667V9C8.08272 9.50417 8.49522 9.91667 8.99939 9.91667C9.50355 9.91667 9.91605 9.50417 9.91605 9V5.33333V1.66667C9.91605 1.1625 9.50355 0.75 8.99939 0.75ZM13.7111 3.37167C13.5424 3.54026 13.447 3.76844 13.4452 4.00687C13.4435 4.2453 13.2791 4.704 13.4452 4.875C14.4811 5.975 14.9944 7.13917 15.0311 8.76167C15.1136 12.2725 12.6663 14.9583 9.45801 15.4167C8.54134 15.4167 7.95485 15.2745 7.16634 14.9583C6.37784 14.6422 5.30965 13.915 4.70469 13.3186C4.09973 12.7222 3.60066 12.0756 3.27333 11.2917C2.946 10.5077 2.97569 9.84953 2.97689 9C2.97689 7.31333 3.64135 5.79167 4.70469 4.64583C5.04385 4.28833 4.63605 3.72 4.28772 3.37167C4.20158 3.28474 4.0988 3.21607 3.98551 3.16977C3.87223 3.12347 3.75077 3.10048 3.62841 3.1022C3.50604 3.10391 3.38527 3.13028 3.27333 3.17973C3.16138 3.22918 3.06056 3.30069 2.97689 3.39C1.60124 4.84711 0.808574 6.75865 0.749387 8.76167C0.621054 13.235 4.26022 17.1033 8.73355 17.2408C13.4086 17.3875 17.2494 13.6383 17.2494 8.99083C17.2494 6.81833 16.4061 4.85667 15.0311 3.39C14.6827 3.01417 14.0777 3.005 13.7111 3.37167Z" fill="#7F31D2"/>
</svg>
