<svg width="125" height="20" viewBox="0 0 125 20" fill="none" xmlns="http://www.w3.org/2000/svg">
<path d="M6.73828 13.6289L10.2661 1.22656H11.9751L10.9863 6.04834L7.18994 19H5.49316L6.73828 13.6289ZM3.08838 1.22656L5.896 13.3848L6.73828 19H5.05371L0.744629 1.22656H3.08838ZM16.5405 13.3726L19.2871 1.22656H21.6431L17.3462 19H15.6616L16.5405 13.3726ZM12.2314 1.22656L15.6616 13.6289L16.9067 19H15.21L11.5479 6.04834L10.5469 1.22656H12.2314ZM22.9248 12.5425V12.2617C22.9248 11.3096 23.0632 10.4266 23.3398 9.61279C23.6165 8.79085 24.0153 8.07878 24.5361 7.47656C25.057 6.86621 25.6877 6.39421 26.4282 6.06055C27.1688 5.71875 27.9989 5.54785 28.9185 5.54785C29.8462 5.54785 30.6803 5.71875 31.4209 6.06055C32.1696 6.39421 32.8044 6.86621 33.3252 7.47656C33.8542 8.07878 34.257 8.79085 34.5337 9.61279C34.8104 10.4266 34.9487 11.3096 34.9487 12.2617V12.5425C34.9487 13.4946 34.8104 14.3776 34.5337 15.1914C34.257 16.0052 33.8542 16.7173 33.3252 17.3276C32.8044 17.9299 32.1737 18.4019 31.4331 18.7437C30.7007 19.0773 29.8706 19.2441 28.9429 19.2441C28.0151 19.2441 27.181 19.0773 26.4404 18.7437C25.6999 18.4019 25.0651 17.9299 24.5361 17.3276C24.0153 16.7173 23.6165 16.0052 23.3398 15.1914C23.0632 14.3776 22.9248 13.4946 22.9248 12.5425ZM25.1831 12.2617V12.5425C25.1831 13.2017 25.2604 13.8242 25.415 14.4102C25.5697 14.988 25.8016 15.5007 26.1108 15.9482C26.4282 16.3958 26.8229 16.7498 27.2949 17.0103C27.7669 17.2625 28.3162 17.3887 28.9429 17.3887C29.5614 17.3887 30.1025 17.2625 30.5664 17.0103C31.0384 16.7498 31.429 16.3958 31.7383 15.9482C32.0475 15.5007 32.2795 14.988 32.4341 14.4102C32.5968 13.8242 32.6782 13.2017 32.6782 12.5425V12.2617C32.6782 11.6107 32.5968 10.9963 32.4341 10.4185C32.2795 9.83252 32.0435 9.31576 31.7261 8.86816C31.4168 8.41243 31.0262 8.05436 30.5542 7.79395C30.0903 7.53353 29.5451 7.40332 28.9185 7.40332C28.3 7.40332 27.7547 7.53353 27.2827 7.79395C26.8188 8.05436 26.4282 8.41243 26.1108 8.86816C25.8016 9.31576 25.5697 9.83252 25.415 10.4185C25.2604 10.9963 25.1831 11.6107 25.1831 12.2617ZM40.0391 7.86719V19H37.7808V5.79199H39.978L40.0391 7.86719ZM44.165 5.71875L44.1528 7.81836C43.9657 7.77767 43.7866 7.75326 43.6157 7.74512C43.453 7.72884 43.2658 7.7207 43.0542 7.7207C42.5334 7.7207 42.0736 7.80208 41.6748 7.96484C41.276 8.1276 40.9383 8.35547 40.6616 8.64844C40.3849 8.94141 40.1652 9.29134 40.0024 9.69824C39.8478 10.097 39.7461 10.5365 39.6973 11.0166L39.0625 11.3828C39.0625 10.5853 39.1398 9.83659 39.2944 9.13672C39.4572 8.43685 39.7054 7.81836 40.0391 7.28125C40.3727 6.736 40.7959 6.31283 41.3086 6.01172C41.8294 5.70247 42.4479 5.54785 43.1641 5.54785C43.3268 5.54785 43.514 5.5682 43.7256 5.60889C43.9372 5.64144 44.0837 5.67806 44.165 5.71875ZM48.5229 0.25V19H46.2524V0.25H48.5229ZM56.5918 5.79199L50.8301 11.9565L47.6074 15.3013L47.4243 12.8965L49.7314 10.1377L53.833 5.79199H56.5918ZM54.5288 19L49.8169 12.7012L50.9888 10.687L57.1899 19H54.5288ZM63.623 10.5161V12.3716H57.666V10.5161H63.623Z" fill="#4540DB"/>
<path d="M72.7295 12.0298H67.981V10.1133H72.7295C73.6491 10.1133 74.3937 9.9668 74.9634 9.67383C75.533 9.38086 75.9481 8.97396 76.2085 8.45312C76.4771 7.93229 76.6113 7.33822 76.6113 6.6709C76.6113 6.06055 76.4771 5.48682 76.2085 4.94971C75.9481 4.4126 75.533 3.98128 74.9634 3.65576C74.3937 3.3221 73.6491 3.15527 72.7295 3.15527H68.5303V19H66.1743V1.22656H72.7295C74.0723 1.22656 75.2075 1.4585 76.1353 1.92236C77.063 2.38623 77.7669 3.02913 78.2471 3.85107C78.7272 4.66488 78.9673 5.59668 78.9673 6.64648C78.9673 7.78581 78.7272 8.7583 78.2471 9.56396C77.7669 10.3696 77.063 10.984 76.1353 11.4072C75.2075 11.8223 74.0723 12.0298 72.7295 12.0298ZM84.0576 0.25V19H81.7871V0.25H84.0576ZM95.4712 16.7417V9.94238C95.4712 9.42155 95.3654 8.96989 95.1538 8.5874C94.9504 8.19678 94.6411 7.89567 94.2261 7.68408C93.811 7.47249 93.2983 7.3667 92.688 7.3667C92.1183 7.3667 91.6178 7.46436 91.1865 7.65967C90.7633 7.85498 90.4297 8.11133 90.1855 8.42871C89.9495 8.74609 89.8315 9.08789 89.8315 9.4541H87.5732C87.5732 8.9821 87.6953 8.51416 87.9395 8.05029C88.1836 7.58643 88.5335 7.16732 88.9893 6.79297C89.4531 6.41048 90.0065 6.10938 90.6494 5.88965C91.3005 5.66178 92.0247 5.54785 92.8223 5.54785C93.7826 5.54785 94.6289 5.71061 95.3613 6.03613C96.1019 6.36165 96.6797 6.854 97.0947 7.51318C97.5179 8.16423 97.7295 8.9821 97.7295 9.9668V16.1191C97.7295 16.5586 97.7661 17.0265 97.8394 17.5229C97.9207 18.0194 98.0387 18.4466 98.1934 18.8047V19H95.8374C95.7235 18.7396 95.634 18.3937 95.5688 17.9624C95.5037 17.5229 95.4712 17.116 95.4712 16.7417ZM95.8618 10.9922L95.8862 12.5791H93.6035C92.9606 12.5791 92.3869 12.632 91.8823 12.7378C91.3778 12.8354 90.9546 12.986 90.6128 13.1895C90.271 13.3929 90.0106 13.6493 89.8315 13.9585C89.6525 14.2596 89.563 14.6136 89.563 15.0205C89.563 15.4355 89.6566 15.814 89.8438 16.1558C90.0309 16.4976 90.3117 16.7702 90.686 16.9736C91.0685 17.1689 91.5365 17.2666 92.0898 17.2666C92.7816 17.2666 93.3919 17.1201 93.9209 16.8271C94.4499 16.5342 94.869 16.1761 95.1782 15.7529C95.4956 15.3298 95.6665 14.9188 95.6909 14.52L96.6553 15.6064C96.5983 15.9482 96.4437 16.3267 96.1914 16.7417C95.9391 17.1567 95.6014 17.5555 95.1782 17.938C94.7632 18.3123 94.2668 18.6257 93.689 18.8779C93.1193 19.1221 92.4764 19.2441 91.7603 19.2441C90.8651 19.2441 90.0798 19.0692 89.4043 18.7192C88.737 18.3693 88.2161 17.9014 87.8418 17.3154C87.4756 16.7214 87.2925 16.0581 87.2925 15.3257C87.2925 14.6177 87.4308 13.9951 87.7075 13.458C87.9842 12.9128 88.383 12.4611 88.9038 12.103C89.4246 11.7368 90.0513 11.4601 90.7837 11.2729C91.5161 11.0858 92.334 10.9922 93.2373 10.9922H95.8618ZM106.567 17.3887C107.104 17.3887 107.601 17.2788 108.057 17.0591C108.512 16.8394 108.887 16.5382 109.18 16.1558C109.473 15.7651 109.639 15.3216 109.68 14.8252H111.829C111.788 15.6064 111.523 16.3348 111.035 17.0103C110.555 17.6776 109.924 18.2188 109.143 18.6338C108.362 19.0407 107.503 19.2441 106.567 19.2441C105.575 19.2441 104.708 19.0692 103.967 18.7192C103.235 18.3693 102.625 17.8892 102.136 17.2788C101.656 16.6685 101.294 15.9686 101.05 15.1792C100.814 14.3817 100.696 13.5394 100.696 12.6523V12.1396C100.696 11.2526 100.814 10.4144 101.05 9.625C101.294 8.82747 101.656 8.12354 102.136 7.51318C102.625 6.90283 103.235 6.42269 103.967 6.07275C104.708 5.72282 105.575 5.54785 106.567 5.54785C107.601 5.54785 108.504 5.75944 109.277 6.18262C110.05 6.59766 110.657 7.16732 111.096 7.8916C111.544 8.60775 111.788 9.42155 111.829 10.333H109.68C109.639 9.78776 109.485 9.29541 109.216 8.85596C108.956 8.4165 108.598 8.06657 108.142 7.80615C107.694 7.5376 107.17 7.40332 106.567 7.40332C105.876 7.40332 105.294 7.54167 104.822 7.81836C104.358 8.08691 103.988 8.45312 103.711 8.91699C103.442 9.37272 103.247 9.88135 103.125 10.4429C103.011 10.9963 102.954 11.5618 102.954 12.1396V12.6523C102.954 13.2301 103.011 13.7998 103.125 14.3613C103.239 14.9229 103.43 15.4315 103.699 15.8872C103.975 16.3429 104.346 16.7091 104.81 16.9858C105.282 17.2544 105.868 17.3887 106.567 17.3887ZM119.849 19.2441C118.929 19.2441 118.095 19.0895 117.346 18.7803C116.606 18.4629 115.967 18.0194 115.43 17.4497C114.901 16.88 114.494 16.2046 114.209 15.4233C113.924 14.6421 113.782 13.7876 113.782 12.8599V12.3472C113.782 11.2729 113.94 10.3167 114.258 9.47852C114.575 8.63216 115.007 7.91602 115.552 7.33008C116.097 6.74414 116.715 6.30062 117.407 5.99951C118.099 5.6984 118.815 5.54785 119.556 5.54785C120.5 5.54785 121.313 5.71061 121.997 6.03613C122.689 6.36165 123.254 6.81738 123.694 7.40332C124.133 7.98112 124.459 8.66471 124.67 9.4541C124.882 10.2354 124.988 11.0898 124.988 12.0176V13.0308H115.125V11.1875H122.729V11.0166C122.697 10.4307 122.575 9.861 122.363 9.30762C122.16 8.75423 121.834 8.2985 121.387 7.94043C120.939 7.58236 120.329 7.40332 119.556 7.40332C119.043 7.40332 118.571 7.51318 118.14 7.73291C117.708 7.9445 117.338 8.26188 117.029 8.68506C116.72 9.10824 116.479 9.625 116.309 10.2354C116.138 10.8457 116.052 11.5496 116.052 12.3472V12.8599C116.052 13.4865 116.138 14.0765 116.309 14.6299C116.488 15.1751 116.744 15.6553 117.078 16.0703C117.419 16.4854 117.83 16.8109 118.311 17.0469C118.799 17.2829 119.352 17.4009 119.971 17.4009C120.768 17.4009 121.444 17.2381 121.997 16.9126C122.55 16.5871 123.035 16.1517 123.45 15.6064L124.817 16.6929C124.532 17.1242 124.17 17.5352 123.73 17.9258C123.291 18.3164 122.75 18.6338 122.107 18.8779C121.472 19.1221 120.719 19.2441 119.849 19.2441Z" fill="black"/>
</svg>
