<svg width="28" height="14" viewBox="0 0 28 14" fill="none" xmlns="http://www.w3.org/2000/svg">
<path d="M3.19935 7.00065C3.19935 4.72065 5.05268 2.86732 7.33268 2.86732H12.666V0.333984H7.33268C3.65268 0.333984 0.666016 3.32065 0.666016 7.00065C0.666016 10.6807 3.65268 13.6673 7.33268 13.6673H12.666V11.134H7.33268C5.05268 11.134 3.19935 9.28065 3.19935 7.00065ZM8.66602 8.33398H19.3327V5.66732H8.66602V8.33398ZM20.666 0.333984H15.3327V2.86732H20.666C22.946 2.86732 24.7994 4.72065 24.7994 7.00065C24.7994 9.28065 22.946 11.134 20.666 11.134H15.3327V13.6673H20.666C24.346 13.6673 27.3327 10.6807 27.3327 7.00065C27.3327 3.32065 24.346 0.333984 20.666 0.333984Z" fill="#BDBDBD"/>
</svg>
